<mxfile host="app.diagrams.net" modified="2020-11-03T02:04:19.023Z" agent="5.0 (Macintosh; Intel Mac OS X 10_15_7) AppleWebKit/537.36 (KHTML, like Gecko) Chrome/86.0.4240.111 Safari/537.36" etag="e1u7e4jM4xId1qMtXpzo" version="13.8.6" type="github">
  <diagram id="R2lEEEUBdFMjLlhIrx00" name="Page-1">
    <mxGraphModel dx="1259" dy="786" grid="1" gridSize="10" guides="1" tooltips="1" connect="1" arrows="1" fold="1" page="1" pageScale="1" pageWidth="850" pageHeight="1100" math="0" shadow="0" extFonts="Permanent Marker^https://fonts.googleapis.com/css?family=Permanent+Marker">
      <root>
        <mxCell id="0" />
        <mxCell id="1" parent="0" />
        <mxCell id="Owxq5MNf6eVXzBRPTlwJ-1" value="event(关注)" style="rounded=0;whiteSpace=wrap;html=1;fillColor=#f5f5f5;strokeColor=#666666;fontColor=#333333;" parent="1" vertex="1">
          <mxGeometry x="120" y="250" width="90" height="50" as="geometry" />
        </mxCell>
        <mxCell id="Owxq5MNf6eVXzBRPTlwJ-2" value="" style="shape=curlyBracket;whiteSpace=wrap;html=1;rounded=1;" parent="1" vertex="1">
          <mxGeometry x="210" y="170" width="20" height="210" as="geometry" />
        </mxCell>
        <mxCell id="Owxq5MNf6eVXzBRPTlwJ-3" value="风险策略" style="rounded=0;whiteSpace=wrap;html=1;" parent="1" vertex="1">
          <mxGeometry x="240" y="160" width="100" height="30" as="geometry" />
        </mxCell>
        <mxCell id="Owxq5MNf6eVXzBRPTlwJ-5" value="" style="shape=curlyBracket;whiteSpace=wrap;html=1;rounded=1;" parent="1" vertex="1">
          <mxGeometry x="350" y="130" width="30" height="90" as="geometry" />
        </mxCell>
        <mxCell id="Owxq5MNf6eVXzBRPTlwJ-7" value="规则" style="rounded=0;whiteSpace=wrap;html=1;" parent="1" vertex="1">
          <mxGeometry x="400" y="110" width="100" height="30" as="geometry" />
        </mxCell>
        <mxCell id="Owxq5MNf6eVXzBRPTlwJ-8" value="风险决策" style="rounded=0;whiteSpace=wrap;html=1;" parent="1" vertex="1">
          <mxGeometry x="400" y="200" width="100" height="30" as="geometry" />
        </mxCell>
        <mxCell id="Owxq5MNf6eVXzBRPTlwJ-9" value="&lt;b style=&quot;font-size: 14px&quot;&gt;。&lt;br&gt;。&lt;br&gt;。&lt;br&gt;。&lt;br&gt;。&lt;br&gt;。&lt;/b&gt;" style="text;html=1;strokeColor=none;fillColor=none;align=center;verticalAlign=middle;whiteSpace=wrap;rounded=0;" parent="1" vertex="1">
          <mxGeometry x="270" y="240" width="40" height="120" as="geometry" />
        </mxCell>
        <mxCell id="Owxq5MNf6eVXzBRPTlwJ-10" value="event(评论)" style="rounded=0;whiteSpace=wrap;html=1;fillColor=#f5f5f5;strokeColor=#666666;fontColor=#333333;" parent="1" vertex="1">
          <mxGeometry x="115" y="500" width="90" height="50" as="geometry" />
        </mxCell>
        <mxCell id="Owxq5MNf6eVXzBRPTlwJ-12" value="&lt;b style=&quot;font-size: 14px&quot;&gt;。&lt;br&gt;。&lt;br&gt;。&lt;br&gt;。&lt;br&gt;。&lt;br&gt;。&lt;/b&gt;" style="text;html=1;strokeColor=none;fillColor=none;align=center;verticalAlign=middle;whiteSpace=wrap;rounded=0;" parent="1" vertex="1">
          <mxGeometry x="140" y="360" width="40" height="120" as="geometry" />
        </mxCell>
      </root>
    </mxGraphModel>
  </diagram>
</mxfile>
